<svg width="20" height="21" viewBox="0 0 20 21" fill="none" xmlns="http://www.w3.org/2000/svg">
<g clip-path="url(#clip0_2_447)">
<path d="M19.8779 19.1996L14.0681 13.3897C15.17 12.0293 15.8334 10.2997 15.8334 8.4167C15.8334 4.05145 12.2819 0.5 7.91666 0.5C3.55141 0.5 0 4.05145 0 8.4167C0 12.7819 3.55145 16.3334 7.9167 16.3334C9.79975 16.3334 11.5293 15.67 12.8897 14.5681L18.6996 20.378C18.8623 20.5407 19.1261 20.5407 19.2889 20.378L19.878 19.7888C20.0407 19.6261 20.0407 19.3623 19.8779 19.1996ZM7.9167 14.6667C4.47024 14.6667 1.66668 11.8631 1.66668 8.4167C1.66668 4.97024 4.47024 2.16668 7.9167 2.16668C11.3631 2.16668 14.1667 4.97024 14.1667 8.4167C14.1667 11.8631 11.3631 14.6667 7.9167 14.6667Z" fill="white"/>
</g>
<defs>
<clipPath id="clip0_2_447">
<rect width="20" height="20" fill="white" transform="translate(0 0.5)"/>
</clipPath>
</defs>
</svg>
